<svg width="1392" height="484" viewBox="0 0 1392 484" fill="none" xmlns="http://www.w3.org/2000/svg">
<path d="M-69 329C-51.5 329 81.5 479.5 257.5 479.5C502 479.5 633.644 -68.7574 978 84.5C1251 206 1371 219 1421 134.5" stroke="#C1DEEF"/>
<path d="M-69 199C-53.5 210.5 81.5 479.5 257.5 479.5C502 479.5 673.644 -8.75735 1018 144.5C1291 266 1334 246.5 1421 184.5" stroke="#C1DEEF"/>
<path d="M-69 409C-51.5 409 81.5 483.5 257.5 483.5C502 483.5 636.499 -158.239 958 38.5C1192.5 182 1331 239 1421 174.5" stroke="#C1DEEF"/>
</svg>
